<?xml version="1.0" encoding="UTF-8"?>
<svg id="Layer_1" data-name="Layer 1" xmlns="http://www.w3.org/2000/svg" viewBox="0 0 512 512">
  <path class="cls-1" fill="#80b3e0"  d="M512,307.73c0-57.89-46.93-104.82-104.81-104.82-2.69,0-5.37.1-8.01.3-10.59-59.01-62.19-103.8-124.25-103.8-54.49,0-100.91,34.52-118.6,82.88-7.61-3.13-15.94-4.86-24.68-4.86-35.92,0-65.04,29.12-65.04,65.04,0,.73.03,1.46.06,2.19C28.54,253.02,0,286.97,0,327.6c0,46.3,37.05,83.92,83.11,84.89v.05l344.3.05h.25c48.21-9.43,84.33-53.89,84.33-104.86Z"/>
  <path fill="#64a1d7" d="M83.11,412.49v.05h344.29l.34-.03c48.21-9.42,84.25-53.82,84.25-104.79,0-9.3-1.22-18.31-3.49-26.89-60.13,108.31-147.38,45.08-147.38,45.08,0,0-49.7,50.69-103.27,49.19-53.57-1.5-78.58-33.38-78.58-33.38C48.21,401.84,0,327.6,0,327.6c0,46.3,37.05,83.92,83.11,84.89Z"/>
  <circle fill="#fff" cx="266.08" cy="279.09" r="110.23"/>
  <path fill="#3c5479" d="M338.56,233.6l-17.64-17.6-56.69,56.7-22.05-22.03-17.65,17.57v-.24s-.05.08-.07.12c.02.16,0,.33-.02.49.02.02.04.05.07.07v-.31s39.71,39.71,39.71,39.71l74.37-74.37-.02-.1Z"/>
</svg>
