<?xml version="1.0" encoding="utf-8"?>
<svg xmlns="http://www.w3.org/2000/svg" xml:space="preserve" id="_x32_" width="20" height="20" fill="#fff" stroke="#fff" style="fill:#fff" viewBox="0 0 512 512"><path id="SVGRepo_iconCarrier" d="m502.325 307.303-39.006-30.805c-6.215-4.908-9.665-12.429-9.668-20.348v-.252c-.014-7.936 3.44-15.478 9.667-20.396l39.007-30.806a25.44 25.44 0 0 0 7.737-29.701l-17.134-41.366a25.44 25.44 0 0 0-26.472-15.532l-49.366 5.8c-7.881.926-15.656-1.966-21.258-7.586l-.177-.178c-5.597-5.602-8.476-13.36-7.552-21.225l5.799-49.363a25.44 25.44 0 0 0-15.531-26.472L337.004 1.939a25.44 25.44 0 0 0-29.701 7.736L276.498 48.68c-4.908 6.215-12.43 9.665-20.349 9.668h-.252c-7.935.014-15.477-3.44-20.395-9.667L204.697 9.675a25.44 25.44 0 0 0-29.702-7.736L133.63 19.072a25.44 25.44 0 0 0-15.532 26.473l5.799 49.366c.926 7.881-1.964 15.656-7.585 21.257l-.178.178c-5.602 5.598-13.36 8.477-21.226 7.552l-49.363-5.799a25.44 25.44 0 0 0-26.472 15.531L1.939 174.996a25.44 25.44 0 0 0 7.736 29.701l39.006 30.805c6.215 4.908 9.665 12.429 9.668 20.348v.251c.014 7.935-3.44 15.477-9.667 20.395L9.675 307.303a25.44 25.44 0 0 0-7.736 29.701l17.134 41.365a25.44 25.44 0 0 0 26.472 15.532l49.366-5.799c7.882-.926 15.656 1.965 21.258 7.586l.178.178c5.597 5.603 8.476 13.36 7.552 21.226l-5.799 49.364a25.44 25.44 0 0 0 15.532 26.472l41.366 17.134a25.44 25.44 0 0 0 29.701-7.736l30.804-39.005c4.908-6.215 12.43-9.665 20.348-9.669h.251c7.936-.014 15.478 3.44 20.396 9.667l30.806 39.007a25.44 25.44 0 0 0 29.701 7.736l41.366-17.134a25.44 25.44 0 0 0 15.532-26.472l-5.8-49.366c-.926-7.881 1.965-15.656 7.586-21.257l.178-.178c5.602-5.597 13.36-8.476 21.225-7.552l49.364 5.799a25.44 25.44 0 0 0 26.472-15.531l17.134-41.365a25.44 25.44 0 0 0-7.737-29.703zm-221.033 22.395c-39.68 16.436-85.172-2.407-101.607-42.087s2.407-85.171 42.087-101.608 85.172 2.407 101.608 42.088c16.435 39.68-2.408 85.171-42.088 101.607z" class="st0"/></svg>